# xmcd
#
# Track frame offsets:
#	150
#	19880
#	40806
#	80700
#	167895
#	192271
#	251471
#
# Disc length: 4739 seconds
#
# Revision: 2
# Processed by: cddbd v1.4PL0 Copyright (c) Steve Scherf et al.
# Submitted via: dBpowerAMP V4.0
#
DISCID=56128107
DTITLE=The Allman Brothers Band - At Fillmore East
DYEAR=1971
DGENRE=Southern Rock
TTITLE0=Statesboro Blues
TTITLE1=Done Somebody Wrong
TTITLE2=Stormy Monday
TTITLE3=You Don't Love Me
TTITLE4=Hot 'lanta
TTITLE5=In Memory of Elizabeth Reed
TTITLE6=Whipping Post
EXTD=
EXTT0=
EXTT1=
EXTT2=
EXTT3=
EXTT4=
EXTT5=
EXTT6=
PLAYORDER=
